<?xml version="1.0" encoding="utf-8"?>
<!-- Generator: Adobe Illustrator 16.0.0, SVG Export Plug-In . SVG Version: 6.00 Build 0)  -->
<!DOCTYPE svg PUBLIC "-//W3C//DTD SVG 1.1//EN" "http://www.w3.org/Graphics/SVG/1.1/DTD/svg11.dtd">
<svg version="1.1" xmlns="http://www.w3.org/2000/svg" xmlns:xlink="http://www.w3.org/1999/xlink" x="0px" y="0px" width="1024px"
	 height="768px" viewBox="0 0 1024 768" enable-background="new 0 0 1024 768" xml:space="preserve">
<g id="Layer_2">
	<rect x="-4" fill="#252623" width="1028" height="768"/>
</g>
<g id="Layer_3">
	<path fill="none" stroke="#DECC00" stroke-miterlimit="10" d="M901.5,872"/>
	<path fill="none" stroke="#DECC00" stroke-miterlimit="10" d="M11,547c66.122-7.641,131.714-16.872,195.768-35.547
		c65.703-19.155,128.598-46.273,191.323-73.362c41.605-17.968,83.56-38.027,127.244-50.565c1.956-0.562,12.44-4.494,9.421-0.59
		c-1.699,2.197-6.904,3.651-9.318,4.761c-6.624,3.044-13.364,5.836-20.075,8.681c-14.73,6.245-29.615,12.366-43.684,20.023
		c-9.018,4.908-26.036,13.256-26.704,25.376c-0.73,13.26,19.603,19.991,29.102,23.296c33.954,11.811,71.184,15.496,106.794,18.263
		c107.445,8.347,220.342,2.059,324.274-27.715c40.632-11.64,82.192-27.409,115.667-53.891c22.799-18.036,43.5-43.76,42.479-74.381
		c-1.699-50.948-58.747-84.281-105.105-83.639c-19.473,0.27-40.044,6.718-52.288,22.708c-13.238,17.29-12.442,40.425-5.354,60.046
		c16.6,45.945,64.563,83.727,112.817,90.25c35.564,4.808,71.442-12.511,78.308-49.996c1.782-9.735,2.259-22.705-3.146-31.545
		c-4.495-7.354-9.845-4.975-13.335,1.828c-6.225,12.135-6.978,27.862-8.316,41.143c-2.196,21.775-3.085,43.721-6.528,65.357
		c-2.47,15.516-5.961,34.149-17.657,45.673c-12.688,12.499-30.877,9.367-45.867,3.161c-24.397-10.102-45.854-27.628-65.455-44.949
		c-27.356-24.177-52.443-51.062-75.444-79.39c-19.915-24.527-39.895-50.771-52.866-79.784c-4.219-9.438-14.036-31.822,0.262-37.885
		c15.084-6.397,38.149,7.147,50.876,13.701c27.896,14.366,53.992,32.284,79.458,50.528
		c58.095,41.622,113.192,87.264,169.791,130.858c54.7,42.133,110.948,82.079,167.56,121.587"/>
</g>
</svg>
